#N canvas 38 148 1164 753 10;
#X obj 362 37 inlet~;
#X obj 514 40 inlet;
#X obj 49 290 +~;
#X obj 50 338 +~;
#X obj 50 388 +~;
#X obj 49 426 +~;
#X obj 49 466 +~;
#X obj 49 509 +~;
#X obj 48 554 +~;
#X obj 48 595 +~;
#X obj 412 670 +~;
#X obj 519 299 +~;
#X obj 520 347 +~;
#X obj 520 397 +~;
#X obj 519 435 +~;
#X obj 519 475 +~;
#X obj 519 518 +~;
#X obj 518 564 +~;
#X obj 412 707 outlet~;
#X obj 50 238 BandlimitedNoiseFilter 43 64.5 1.5;
#X obj 519 593 +~;
#X obj 116 546 BandlimitedNoiseFilter 688 1032 0.8;
#X obj 71 266 BandlimitedNoiseFilter 64.5 86 1.4;
#X obj 74 313 BandlimitedNoiseFilter 86 129 1.3;
#X obj 76 362 BandlimitedNoiseFilter 129 172 1.2;
#X obj 91 392 BandlimitedNoiseFilter 172 258 1.1;
#X obj 102 467 BandlimitedNoiseFilter 344 516 0.9;
#X obj 96 427 BandlimitedNoiseFilter 258 344 0.9;
#X obj 109 507 BandlimitedNoiseFilter 516 688 0.8;
#X obj 520 232 BandlimitedNoiseFilter 1032 1376 0.7;
#X obj 541 275 BandlimitedNoiseFilter 1376 2064 0.6;
#X obj 551 363 BandlimitedNoiseFilter 3096 4128 0.4;
#X obj 544 322 BandlimitedNoiseFilter 2064 3096 0.5;
#X obj 561 401 BandlimitedNoiseFilter 4128 5504 0.4;
#X obj 566 436 BandlimitedNoiseFilter 5504 8256 0.3;
#X obj 572 475 BandlimitedNoiseFilter 8256 12384 0.2;
#X obj 579 516 BandlimitedNoiseFilter 12384 16512 0.2;
#X obj 581 554 BandlimitedNoiseFilter 16512 22000 0.2;
#X connect 0 0 19 0;
#X connect 0 0 21 0;
#X connect 0 0 22 0;
#X connect 0 0 23 0;
#X connect 0 0 24 0;
#X connect 0 0 25 0;
#X connect 0 0 26 0;
#X connect 0 0 27 0;
#X connect 0 0 28 0;
#X connect 0 0 29 0;
#X connect 0 0 30 0;
#X connect 0 0 31 0;
#X connect 0 0 32 0;
#X connect 0 0 33 0;
#X connect 0 0 34 0;
#X connect 0 0 35 0;
#X connect 0 0 36 0;
#X connect 0 0 37 0;
#X connect 1 0 19 3;
#X connect 1 0 21 3;
#X connect 1 0 22 3;
#X connect 1 0 23 3;
#X connect 1 0 24 3;
#X connect 1 0 25 3;
#X connect 1 0 26 3;
#X connect 1 0 27 3;
#X connect 1 0 28 3;
#X connect 1 0 29 3;
#X connect 1 0 30 3;
#X connect 1 0 31 3;
#X connect 1 0 32 3;
#X connect 1 0 33 3;
#X connect 1 0 34 3;
#X connect 1 0 35 3;
#X connect 1 0 36 3;
#X connect 1 0 37 3;
#X connect 2 0 3 0;
#X connect 3 0 4 0;
#X connect 4 0 5 0;
#X connect 5 0 6 0;
#X connect 6 0 7 0;
#X connect 7 0 8 0;
#X connect 8 0 9 0;
#X connect 9 0 10 0;
#X connect 10 0 18 0;
#X connect 11 0 12 0;
#X connect 12 0 13 0;
#X connect 13 0 14 0;
#X connect 14 0 15 0;
#X connect 15 0 16 0;
#X connect 16 0 17 0;
#X connect 17 0 20 0;
#X connect 19 0 2 0;
#X connect 20 0 10 1;
#X connect 21 0 9 1;
#X connect 22 0 2 1;
#X connect 23 0 3 1;
#X connect 24 0 4 1;
#X connect 25 0 5 1;
#X connect 26 0 7 1;
#X connect 27 0 6 1;
#X connect 28 0 8 1;
#X connect 29 0 11 0;
#X connect 30 0 11 1;
#X connect 31 0 13 1;
#X connect 32 0 12 1;
#X connect 33 0 14 1;
#X connect 34 0 15 1;
#X connect 35 0 16 1;
#X connect 36 0 17 1;
#X connect 37 0 20 1;
