#N canvas 139 89 846 956 10;
#X obj 67 32 adc~;
#X obj 127 136 +~;
#X obj 326 150 hsl 128 15 0 5 0 0 empty empty empty -2 -8 0 10 -262144
-1 -1 4800 1;
#X floatatom 357 179 5 0 0 0 - - -;
#X obj 121 397 dac~;
#X obj 162 242 MultibandNoiseFilter;
#X obj 133 49 noise~;
#X obj 109 283 tgl 15 0 empty empty empty 17 7 0 10 -262144 -1 -1 0
1;
#X obj 72 348 *~;
#X obj 149 338 *~;
#X obj 177 308 == 0;
#X obj 206 43 osc~;
#X obj 222 78 hsl 128 15 0 1 0 0 empty empty empty -2 -8 0 10 -262144
-1 -1 0 1;
#X obj 233 6 hsl 300 15 40 10000 0 0 empty empty empty -2 -8 0 10 -262144
-1 -1 0 1;
#X obj 172 109 *~;
#X floatatom 277 42 5 0 0 0 - - -;
#X floatatom 139 708 5 0 0 0 - - -;
#X obj 220 613 metro 300;
#X obj 139 670 snapshot~;
#X obj 241 562 bng 15 250 50 0 empty empty empty 17 7 0 10 -262144
-1 -1;
#N canvas 0 0 307 339 dBr 0;
#X obj 26 69 hilbert~;
#X obj 26 105 *~;
#X obj 72 101 *~;
#X obj 25 162 sqrt~;
#X obj 26 137 +~;
#X obj 24 187 log~;
#X obj 23 212 /~ 2.30259;
#X obj 22 242 *~ 20;
#X obj 25 11 inlet~;
#X obj 22 269 outlet~;
#X obj 25 42 hip~ 1;
#X connect 0 0 1 0;
#X connect 0 0 1 1;
#X connect 0 1 2 0;
#X connect 0 1 2 1;
#X connect 1 0 4 0;
#X connect 2 0 4 1;
#X connect 3 0 5 0;
#X connect 4 0 3 0;
#X connect 5 0 6 0;
#X connect 6 0 7 0;
#X connect 7 0 9 0;
#X connect 8 0 10 0;
#X connect 10 0 0 0;
#X restore 273 389 pd dBr;
#N canvas 0 0 307 339 dBr 0;
#X obj 26 69 hilbert~;
#X obj 26 105 *~;
#X obj 72 101 *~;
#X obj 25 162 sqrt~;
#X obj 26 137 +~;
#X obj 24 187 log~;
#X obj 23 212 /~ 2.30259;
#X obj 22 242 *~ 20;
#X obj 25 11 inlet~;
#X obj 22 269 outlet~;
#X obj 25 42 hip~ 1;
#X connect 0 0 1 0;
#X connect 0 0 1 1;
#X connect 0 1 2 0;
#X connect 0 1 2 1;
#X connect 1 0 4 0;
#X connect 2 0 4 1;
#X connect 3 0 5 0;
#X connect 4 0 3 0;
#X connect 5 0 6 0;
#X connect 6 0 7 0;
#X connect 7 0 9 0;
#X connect 8 0 10 0;
#X connect 10 0 0 0;
#X restore 27 438 pd dBr;
#X obj 139 525 -~;
#X obj 437 604 Scope~ 330 320 256 3 128 -1 1 0 0 0 0 102 255 51 135
135 135 0;
#X obj 243 531 loadbang;
#X obj 250 667 lop~ 100;
#X obj 342 667 /~ 20;
#X obj 84 93 hip~ 1;
#X obj 140 621 lop~ 1;
#X connect 0 0 27 0;
#X connect 1 0 5 0;
#X connect 1 0 8 0;
#X connect 1 0 21 0;
#X connect 2 0 3 0;
#X connect 2 0 5 1;
#X connect 5 0 9 0;
#X connect 5 0 20 0;
#X connect 6 0 14 0;
#X connect 7 0 8 1;
#X connect 7 0 10 0;
#X connect 8 0 4 0;
#X connect 8 0 4 1;
#X connect 9 0 4 0;
#X connect 9 0 4 1;
#X connect 10 0 9 1;
#X connect 12 0 14 1;
#X connect 13 0 11 0;
#X connect 13 0 15 0;
#X connect 14 0 1 1;
#X connect 17 0 18 0;
#X connect 18 0 16 0;
#X connect 19 0 17 0;
#X connect 20 0 22 1;
#X connect 21 0 22 0;
#X connect 22 0 25 0;
#X connect 22 0 28 0;
#X connect 24 0 19 0;
#X connect 25 0 26 0;
#X connect 26 0 23 0;
#X connect 27 0 1 0;
#X connect 28 0 18 0;
